<mxfile host="Electron" modified="2024-04-20T02:48:45.048Z" agent="Mozilla/5.0 (Windows NT 10.0; Win64; x64) AppleWebKit/537.36 (KHTML, like Gecko) draw.io/21.5.0 Chrome/112.0.5615.204 Electron/24.5.1 Safari/537.36" etag="iaa_pfp8xVCXcE9S_h-P" version="21.5.0" type="device">
  <diagram name="第 1 页" id="1BUXv2Cg-AldKdODdomF">
    <mxGraphModel dx="1297" dy="814" grid="1" gridSize="10" guides="1" tooltips="1" connect="1" arrows="1" fold="1" page="1" pageScale="1" pageWidth="827" pageHeight="1169" math="0" shadow="0">
      <root>
        <mxCell id="0" />
        <mxCell id="1" parent="0" />
        <mxCell id="2sd16rk20hC3hCCGHL2n-3" value="" style="edgeStyle=orthogonalEdgeStyle;rounded=0;orthogonalLoop=1;jettySize=auto;html=1;" edge="1" parent="1" source="2sd16rk20hC3hCCGHL2n-1" target="2sd16rk20hC3hCCGHL2n-2">
          <mxGeometry relative="1" as="geometry" />
        </mxCell>
        <mxCell id="2sd16rk20hC3hCCGHL2n-1" value="（1）请求发起端&lt;br&gt;&lt;br&gt;&amp;nbsp;- PHP CLI 脚本&lt;br&gt;- HTTP 请求&amp;nbsp; &amp;nbsp;&amp;nbsp;" style="fontStyle=0;html=1;whiteSpace=wrap;fillColor=#d5e8d4;strokeColor=#82b366;" vertex="1" parent="1">
          <mxGeometry x="40" y="40" width="120" height="80" as="geometry" />
        </mxCell>
        <mxCell id="2sd16rk20hC3hCCGHL2n-5" value="" style="edgeStyle=orthogonalEdgeStyle;rounded=0;orthogonalLoop=1;jettySize=auto;html=1;" edge="1" parent="1" source="2sd16rk20hC3hCCGHL2n-2" target="2sd16rk20hC3hCCGHL2n-4">
          <mxGeometry relative="1" as="geometry" />
        </mxCell>
        <mxCell id="2sd16rk20hC3hCCGHL2n-2" value="（2）PHP（Xdebug）&lt;br&gt;&lt;br&gt;xdebug engine（也称之为xdebug server）" style="whiteSpace=wrap;html=1;fillColor=#d5e8d4;strokeColor=#82b366;fontStyle=0;" vertex="1" parent="1">
          <mxGeometry x="200" y="40" width="240" height="80" as="geometry" />
        </mxCell>
        <mxCell id="2sd16rk20hC3hCCGHL2n-4" value="（3）PhpStorm /&amp;nbsp;dbgpClient&lt;br&gt;&lt;br&gt;xdebug client（监听端口）" style="whiteSpace=wrap;html=1;fillColor=#d5e8d4;strokeColor=#82b366;fontStyle=0;align=center;" vertex="1" parent="1">
          <mxGeometry x="480" y="40" width="180" height="80" as="geometry" />
        </mxCell>
      </root>
    </mxGraphModel>
  </diagram>
</mxfile>
